<svg width="56" height="56" viewBox="0 0 56 56" fill="none" xmlns="http://www.w3.org/2000/svg">
<path d="M47.25 13.5625H39.8125L38.0406 8.59688C37.9182 8.25709 37.6939 7.96338 37.3983 7.75588C37.1027 7.54837 36.7502 7.43718 36.3891 7.4375H19.6109C18.8727 7.4375 18.2109 7.90234 17.9648 8.59688L16.1875 13.5625H8.75C6.33281 13.5625 4.375 15.5203 4.375 17.9375V42.875C4.375 45.2922 6.33281 47.25 8.75 47.25H47.25C49.6672 47.25 51.625 45.2922 51.625 42.875V17.9375C51.625 15.5203 49.6672 13.5625 47.25 13.5625ZM47.6875 42.875C47.6875 43.1156 47.4906 43.3125 47.25 43.3125H8.75C8.50938 43.3125 8.3125 43.1156 8.3125 42.875V17.9375C8.3125 17.6969 8.50938 17.5 8.75 17.5H18.9602L19.8953 14.8859L21.1477 11.375H34.8469L36.0992 14.8859L37.0344 17.5H47.25C47.4906 17.5 47.6875 17.6969 47.6875 17.9375V42.875ZM28 21C23.1656 21 19.25 24.9156 19.25 29.75C19.25 34.5844 23.1656 38.5 28 38.5C32.8344 38.5 36.75 34.5844 36.75 29.75C36.75 24.9156 32.8344 21 28 21ZM28 35C25.1016 35 22.75 32.6484 22.75 29.75C22.75 26.8516 25.1016 24.5 28 24.5C30.8984 24.5 33.25 26.8516 33.25 29.75C33.25 32.6484 30.8984 35 28 35Z" fill="#F2F2F2"/>
</svg>
